<svg width="24" height="18" viewBox="0 0 24 18" fill="none" xmlns="http://www.w3.org/2000/svg">
<path d="M13.8814 16.5C13.8814 17.329 14.5477 18 15.3686 18C16.1896 18 16.8559 17.329 16.8559 16.5C16.8559 15.672 16.1896 15 15.3686 15C14.5477 15 13.8814 15.672 13.8814 16.5ZM10.411 15C11.232 15 11.8983 15.671 11.8983 16.5C11.8983 17.329 11.232 18 10.411 18C9.59003 18 8.92373 17.329 8.92373 16.5C8.92373 15.672 9.59003 15 10.411 15ZM4.15945 0L7.56236 12H17.902L20.8141 5H9.74669L11.1467 10H9.08634L7.12609 3H23.7966L19.2207 14H6.09391L2.64935 2H0.736702L-1.90735e-06 0H4.15945Z" fill="#30323D"/>
</svg>
