<svg width="18" height="18" viewBox="0 0 18 18" fill="none" xmlns="http://www.w3.org/2000/svg">
<path d="M9 18C13.9706 18 18 13.9706 18 9C18 4.02944 13.9706 0 9 0C4.02944 0 0 4.02944 0 9C0 13.9706 4.02944 18 9 18Z" fill="#F0F0F0"/>
<path d="M1.86047 3.52069C1.15352 4.44048 0.620451 5.50062 0.310059 6.6523H4.99206L1.86047 3.52069Z" fill="#0052B4"/>
<path d="M17.6899 6.65227C17.3795 5.50062 16.8464 4.44048 16.1395 3.52069L13.0079 6.65227H17.6899Z" fill="#0052B4"/>
<path d="M0.310059 11.3479C0.620485 12.4996 1.15355 13.5597 1.86047 14.4794L4.99194 11.3479H0.310059Z" fill="#0052B4"/>
<path d="M14.4794 1.86046C13.5596 1.1535 12.4995 0.620427 11.3478 0.309998V4.992L14.4794 1.86046Z" fill="#0052B4"/>
<path d="M3.52063 16.1394C4.44043 16.8464 5.50057 17.3795 6.65222 17.6899V13.0079L3.52063 16.1394Z" fill="#0052B4"/>
<path d="M6.6521 0.309998C5.50048 0.620427 4.44037 1.1535 3.52063 1.86042L6.6521 4.99197V0.309998Z" fill="#0052B4"/>
<path d="M11.3478 17.6899C12.4994 17.3795 13.5596 16.8464 14.4794 16.1395L11.3478 13.0079V17.6899Z" fill="#0052B4"/>
<path d="M13.0079 11.3479L16.1395 14.4795C16.8464 13.5597 17.3795 12.4995 17.6899 11.3479H13.0079Z" fill="#0052B4"/>
<path d="M17.9238 7.8261H10.174H10.1739V0.0761836C9.78964 0.0261563 9.39786 0 9 0C8.60207 0 8.21035 0.0261563 7.8261 0.0761836V7.82603V7.82606H0.0761836C0.0261563 8.21036 0 8.60214 0 9C0 9.39793 0.0261563 9.78964 0.0761836 10.1739H7.82603H7.82606V17.9238C8.21036 17.9738 8.60207 18 9 18C9.39786 18 9.78964 17.9739 10.1739 17.9238V10.174V10.1739H17.9238C17.9738 9.78964 18 9.39793 18 9C18 8.60214 17.9738 8.21035 17.9238 7.8261Z" fill="#D80027"/>
<path d="M11.3479 11.3479L15.3639 15.364C15.5486 15.1793 15.7248 14.9863 15.8929 14.7862L12.4547 11.3478H11.3479V11.3479Z" fill="#D80027"/>
<path d="M6.6521 11.3479H6.65203L2.63599 15.364C2.82063 15.5487 3.01367 15.7249 3.21377 15.893L6.6521 12.4546V11.3479Z" fill="#D80027"/>
<path d="M6.6521 6.6522V6.65213L2.63608 2.63599C2.45137 2.82063 2.27517 3.01367 2.10706 3.21378L5.54537 6.65217H6.6521V6.6522Z" fill="#D80027"/>
<path d="M11.3479 6.65223L15.364 2.63605C15.1794 2.45134 14.9863 2.27514 14.7862 2.10706L11.3479 5.54544V6.65223Z" fill="#D80027"/>
</svg>
