<?xml version="1.0" standalone="no"?>
<!DOCTYPE svg PUBLIC "-//W3C//DTD SVG 20010904//EN"
 "http://www.w3.org/TR/2001/REC-SVG-20010904/DTD/svg10.dtd">
<svg version="1.0" xmlns="http://www.w3.org/2000/svg"
 width="840.000000pt" height="446.000000pt" viewBox="0 0 840.000000 446.000000"
 preserveAspectRatio="xMidYMid meet">

<g transform="translate(0.000000,446.000000) scale(0.100000,-0.100000)"
fill="#000000" stroke="none">
<path d="M5046 4018 c-134 -232 -274 -483 -268 -485 4 -2 236 -16 515 -32 280
-16 510 -31 512 -33 2 -2 -247 -25 -555 -50 -307 -25 -563 -49 -568 -52 -6 -3
-94 -139 -197 -301 -103 -162 -191 -295 -194 -295 -4 0 -45 126 -91 281 -47
154 -87 285 -90 289 -4 6 -68 5 -155 -1 -83 -5 -577 -37 -1098 -69 -522 -32
-952 -61 -955 -64 -10 -11 -230 -401 -227 -404 4 -4 188 -16 1775 -117 217
-14 535 -34 705 -45 834 -54 1100 -70 1133 -70 19 0 33 -2 31 -5 -3 -2 -180
-15 -394 -30 -215 -14 -455 -30 -535 -35 -80 -6 -773 -51 -1540 -100 -767 -50
-1408 -91 -1423 -93 -26 -2 -37 -18 -124 -175 -52 -96 -92 -177 -88 -180 3 -3
250 -21 548 -38 298 -18 772 -47 1052 -64 281 -16 623 -37 760 -45 138 -9 470
-29 739 -45 269 -16 490 -31 492 -33 3 -2 -3834 -259 -3861 -257 -11 0 -241
-408 -234 -414 4 -4 1621 -115 1727 -119 l53 -2 150 280 c83 154 154 283 158
288 4 4 47 -130 96 -298 83 -285 91 -305 112 -305 44 0 1288 -91 1298 -94 6
-3 1 -5 -10 -5 -104 -4 -1249 -91 -1253 -95 -4 -5 115 -432 138 -492 l10 -24
1364 0 c1313 0 1368 1 1480 20 403 69 742 203 1000 397 239 179 388 372 440
568 28 108 41 277 27 367 -32 207 -159 453 -310 603 -34 33 -61 62 -61 66 0 3
23 9 51 13 76 10 252 71 357 123 344 169 553 449 639 853 26 123 24 284 -4
375 -88 282 -379 434 -908 474 -85 7 -540 11 -1167 11 l-1027 0 -25 -42z
m1694 -724 c59 -27 107 -76 139 -144 21 -45 26 -69 26 -131 0 -65 -5 -85 -35
-145 -62 -126 -169 -208 -325 -250 -60 -16 -107 -19 -332 -19 -144 0 -264 3
-268 6 -7 8 29 82 218 443 l140 268 196 -4 c172 -3 202 -6 241 -24z m-725
-1488 c138 -64 208 -234 157 -379 -39 -110 -130 -215 -237 -271 -82 -44 -133
-49 -436 -39 l-278 8 105 210 c98 194 199 384 246 463 l20 32 186 0 c175 0
190 -2 237 -24z"/>
<path d="M2272 3878 c-56 -95 -98 -175 -94 -179 9 -7 1863 -122 1869 -115 4 4
-81 339 -113 449 -5 16 -51 17 -783 17 l-777 0 -102 -172z"/>
<path d="M1313 626 c-502 -34 -914 -64 -916 -67 -9 -10 -187 -346 -187 -352 0
-4 424 -6 942 -5 l942 3 124 230 c68 127 126 236 129 243 8 18 -21 16 -1034
-52z"/>
</g>
</svg>
