<?xml version="1.0" encoding="UTF-8" standalone="no"?>
<svg
   xmlns:dc="http://purl.org/dc/elements/1.1/"
   xmlns:cc="http://creativecommons.org/ns#"
   xmlns:rdf="http://www.w3.org/1999/02/22-rdf-syntax-ns#"
   xmlns:svg="http://www.w3.org/2000/svg"
   xmlns="http://www.w3.org/2000/svg"
   xmlns:sodipodi="http://sodipodi.sourceforge.net/DTD/sodipodi-0.dtd"
   xmlns:inkscape="http://www.inkscape.org/namespaces/inkscape"
   sodipodi:docname="Washington Post Express (2016-06-29).svg"
   inkscape:version="1.0 (4035a4fb49, 2020-05-01)"
   id="svg7259"
   version="1.1"
   viewBox="0 0 105.83333 20.95869"
   height="79.213943"
   width="400">
  <defs
     id="defs7253" />
  <sodipodi:namedview
     inkscape:window-maximized="0"
     inkscape:window-y="0"
     inkscape:window-x="130"
     inkscape:window-height="860"
     inkscape:window-width="1088"
     fit-margin-bottom="0"
     fit-margin-right="0"
     fit-margin-left="0"
     fit-margin-top="0"
     units="px"
     showgrid="false"
     inkscape:document-rotation="0"
     inkscape:current-layer="layer1"
     inkscape:document-units="px"
     inkscape:cy="73.270854"
     inkscape:cx="369.98959"
     inkscape:zoom="0.35"
     inkscape:pageshadow="2"
     inkscape:pageopacity="0.0"
     borderopacity="1.0"
     bordercolor="#666666"
     pagecolor="#ffffff"
     id="base" />
  <metadata
     id="metadata7256">
    <rdf:RDF>
      <cc:Work
         rdf:about="">
        <dc:format>image/svg+xml</dc:format>
        <dc:type
           rdf:resource="http://purl.org/dc/dcmitype/StillImage" />
        <dc:title></dc:title>
      </cc:Work>
    </rdf:RDF>
  </metadata>
  <g
     transform="translate(-7.9402533,-128.78042)"
     id="layer1"
     inkscape:groupmode="layer"
     inkscape:label="Ebene 1">
    <path
       style="clip-rule:nonzero;fill:#119ed7;fill-opacity:1;fill-rule:nonzero;stroke:none;stroke-width:0.190696"
       d="m 15.900324,145.56093 c 2.653357,0 5.152519,-0.82237 6.818129,-2.49692 l -1.943461,-2.83288 c -0.802264,0.70095 -2.807552,1.46225 -4.226599,1.46225 -1.666356,0 -3.42508,-0.82238 -3.42508,-2.61909 v -0.66967 h 9.904277 v -3.07647 c 0,-4.35472 -3.486908,-6.51719 -7.189093,-6.51719 -4.010577,0 -7.8982437,2.31443 -7.8982437,7.18761 v 2.95355 c 0,4.65939 3.8876667,6.60881 7.9600707,6.60881 m -2.777011,-10.08007 v -0.42684 c 0,-1.73563 1.23431,-2.52746 2.591529,-2.52746 1.357965,0 2.499162,0.76129 2.499162,2.43659 v 0.51771 z m 9.396995,9.65399 h 5.028863 l 2.96175,-4.84264 3.023575,4.84264 h 5.615106 l -5.429624,-8.25357 5.028862,-7.73511 h -4.967035 l -2.684644,4.41581 -2.683896,-4.41581 h -5.615107 l 5.06015,7.76565 z m 17.538079,4.60426 h 5.090691 v -6.00544 h 0.09311 c 0.832806,1.03543 2.374763,1.82726 3.94875,1.82726 3.57853,0 6.479198,-2.25334 6.479198,-5.96894 v -4.84189 c 0,-3.71559 -2.376253,-5.93914 -6.01661,-5.93914 -1.542703,0 -3.331968,0.7613 -4.566279,2.25409 h -0.03054 l -0.348615,-1.91888 h -4.649706 z m 7.867702,-7.89377 c -1.357963,0 -2.777011,-0.79184 -2.777011,-2.55801 v -3.68505 c 0,-2.22281 1.450332,-2.89322 2.745726,-2.89322 1.450332,0 2.653356,0.914 2.653356,2.58855 v 3.95918 c 0,1.85779 -1.357219,2.58855 -2.622071,2.58855 m 9.118401,3.3193 h 5.090692 v -8.12618 c 0,-2.7718 2.19077,-3.65452 4.318965,-3.65452 0.185481,0 0.828337,0.01 1.122577,0.0291 0.279338,-4.5134 -0.0043,0 0.280084,-4.51042 -0.281576,-0.0231 -0.615293,-0.0305 -0.846959,-0.0305 -2.005289,0 -4.072407,1.37063 -4.936496,2.92376 h -0.03054 L 61.522868,129.1462 H 57.04449 Z m 19.100146,0.39629 c 2.653356,0 5.151772,-0.82237 6.818132,-2.49692 l -1.943465,-2.83288 c -0.802261,0.70095 -2.80755,1.46225 -4.227341,1.46225 -1.665614,0 -3.424334,-0.82238 -3.424334,-2.61909 v -0.66967 h 9.903527 v -3.07647 c 0,-4.35472 -3.486163,-6.51719 -7.188348,-6.51719 -4.011318,0 -7.898244,2.31443 -7.898244,7.18761 v 2.95355 c 0,4.65939 3.886926,6.60881 7.960073,6.60881 m -2.777008,-10.08007 v -0.42684 c 0,-1.73563 1.234305,-2.52746 2.591527,-2.52746 1.357222,0 2.499162,0.76129 2.499162,2.43659 v 0.51771 z m 17.93958,10.04953 c 3.424335,0 7.4662,-1.70509 7.4662,-5.60319 0,-2.28462 -1.573245,-3.95917 -4.47391,-4.56851 l -2.807555,-0.57879 c -1.110653,-0.21304 -2.283134,-0.365 -2.283134,-1.21792 0,-0.88346 0.80226,-1.27901 2.160228,-1.27901 1.264852,0 2.683897,0.45663 3.732727,1.40043 l 2.900665,-2.77106 c -1.820554,-1.52258 -3.610561,-2.13192 -6.726508,-2.13192 -4.010578,0 -6.818127,2.31517 -6.818127,5.48177 0,2.40605 1.604526,3.68505 4.196059,4.29439 1.635067,0.45663 2.777008,0.60859 2.869378,0.63913 1.295393,0.24358 2.03583,0.48716 2.03583,1.4317 0,1.03543 -1.326675,1.34009 -2.499162,1.34009 -1.757979,0 -3.516705,-0.82238 -4.658645,-1.91888 l -2.653356,3.01539 c 2.160229,1.97921 4.628104,2.46638 7.55931,2.46638 m 14.999442,0 c 3.42508,0 7.46694,-1.70509 7.46694,-5.60319 0,-2.28462 -1.57399,-3.95917 -4.47391,-4.56851 l -2.80755,-0.57879 c -1.11066,-0.21304 -2.28314,-0.365 -2.28314,-1.21792 0,-0.88346 0.80226,-1.27901 2.15948,-1.27901 1.26485,0 2.6839,0.45663 3.73347,1.40043 l 2.89993,-2.77106 c -1.82056,-1.52258 -3.60982,-2.13192 -6.72576,-2.13192 -4.01058,0 -6.818132,2.31517 -6.818132,5.48177 0,2.40605 1.603782,3.68505 4.195312,4.29439 1.63581,0.45663 2.77701,0.60859 2.86938,0.63913 1.29614,0.24358 2.03657,0.48716 2.03657,1.4317 0,1.03543 -1.32668,1.34009 -2.49916,1.34009 -1.75872,0 -3.51745,-0.82238 -4.65864,-1.91888 l -2.653357,3.01539 c 2.159487,1.97921 4.628107,2.46638 7.558567,2.46638"
       id="path2365" />
  </g>
</svg>
